<?xml version="1.0" encoding="UTF-8" standalone="no"?><!DOCTYPE svg PUBLIC "-//W3C//DTD SVG 1.1//EN" "http://www.w3.org/Graphics/SVG/1.1/DTD/svg11.dtd"><!-- Generated by graphviz version 2.40.1 (20161225.0304)
 --><!-- Title: %0 Pages: 1 --><svg xmlns="http://www.w3.org/2000/svg" xmlns:xlink="http://www.w3.org/1999/xlink" width="1810pt" height="404pt" viewBox="0.00 0.00 1809.78 404.00">
<g id="graph0" class="graph" transform="scale(1 1) rotate(0) translate(4 400)">
<title>%0</title>
<polygon fill="#ffffff" stroke="transparent" points="-4,4 -4,-400 1805.7758,-400 1805.7758,4 -4,4"/>
<!-- [root] aws_default_vpc.my_default_vpc (expand) -->
<g id="node1" class="node">
<title>[root] aws_default_vpc.my_default_vpc (expand)</title>
<polygon fill="none" stroke="#000000" points="1208.8776,-108 1003.2219,-108 1003.2219,-72 1208.8776,-72 1208.8776,-108"/>
<text text-anchor="middle" x="1106.0498" y="-85.8" font-family="Times,serif" font-size="14.00" fill="#000000">aws_default_vpc.my_default_vpc</text>
</g>
<!-- [root] provider[&quot;registry.terraform.io/hashicorp/aws&quot;] -->
<g id="node5" class="node">
<title>[root] provider["registry.terraform.io/hashicorp/aws"]</title>
<polygon fill="none" stroke="#000000" points="957.0498,-36 682.0593,-18 957.0498,0 1232.0402,-18 957.0498,-36"/>
<text text-anchor="middle" x="957.0498" y="-13.8" font-family="Times,serif" font-size="14.00" fill="#000000">provider["registry.terraform.io/hashicorp/aws"]</text>
</g>
<!-- [root] aws_default_vpc.my_default_vpc (expand)&#45;&gt;[root] provider[&quot;registry.terraform.io/hashicorp/aws&quot;] -->
<g id="edge1" class="edge">
<title>[root] aws_default_vpc.my_default_vpc (expand)-&gt;[root] provider["registry.terraform.io/hashicorp/aws"]</title>
<path fill="none" stroke="#000000" d="M1068.4508,-71.8314C1047.3291,-61.6249 1020.9132,-48.8602 999.1062,-38.3226"/>
<polygon fill="#000000" stroke="#000000" points="1000.5982,-35.1564 990.0715,-33.9568 997.5525,-41.4591 1000.5982,-35.1564"/>
</g>
<!-- [root] aws_instance.http_server_01 (expand) -->
<g id="node2" class="node">
<title>[root] aws_instance.http_server_01 (expand)</title>
<polygon fill="none" stroke="#000000" points="866.1614,-252 687.9381,-252 687.9381,-216 866.1614,-216 866.1614,-252"/>
<text text-anchor="middle" x="777.0498" y="-229.8" font-family="Times,serif" font-size="14.00" fill="#000000">aws_instance.http_server_01</text>
</g>
<!-- [root] aws_security_group.http_server_sg_01 (expand) -->
<g id="node3" class="node">
<title>[root] aws_security_group.http_server_sg_01 (expand)</title>
<polygon fill="none" stroke="#000000" points="1223.7128,-180 988.3867,-180 988.3867,-144 1223.7128,-144 1223.7128,-180"/>
<text text-anchor="middle" x="1106.0498" y="-157.8" font-family="Times,serif" font-size="14.00" fill="#000000">aws_security_group.http_server_sg_01</text>
</g>
<!-- [root] aws_instance.http_server_01 (expand)&#45;&gt;[root] aws_security_group.http_server_sg_01 (expand) -->
<g id="edge2" class="edge">
<title>[root] aws_instance.http_server_01 (expand)-&gt;[root] aws_security_group.http_server_sg_01 (expand)</title>
<path fill="none" stroke="#000000" d="M859.6457,-215.9243C906.5687,-205.6554 965.4285,-192.7743 1013.8528,-182.1768"/>
<polygon fill="#000000" stroke="#000000" points="1014.6847,-185.5777 1023.7052,-180.0207 1013.1882,-178.7395 1014.6847,-185.5777"/>
</g>
<!-- [root] data.aws_ami.aws_ami_Linux_2_latest (expand) -->
<g id="node4" class="node">
<title>[root] data.aws_ami.aws_ami_Linux_2_latest (expand)</title>
<polygon fill="none" stroke="#000000" points="956.3816,-108 719.7179,-108 719.7179,-72 956.3816,-72 956.3816,-108"/>
<text text-anchor="middle" x="838.0498" y="-85.8" font-family="Times,serif" font-size="14.00" fill="#000000">data.aws_ami.aws_ami_Linux_2_latest</text>
</g>
<!-- [root] aws_instance.http_server_01 (expand)&#45;&gt;[root] data.aws_ami.aws_ami_Linux_2_latest (expand) -->
<g id="edge3" class="edge">
<title>[root] aws_instance.http_server_01 (expand)-&gt;[root] data.aws_ami.aws_ami_Linux_2_latest (expand)</title>
<path fill="none" stroke="#000000" d="M778.4482,-215.9995C780.4427,-197.2735 785.1583,-167.466 796.0498,-144 800.6249,-134.1427 807.2951,-124.4333 813.9781,-116.0254"/>
<polygon fill="#000000" stroke="#000000" points="816.8747,-118.0167 820.5884,-108.094 811.4974,-113.535 816.8747,-118.0167"/>
</g>
<!-- [root] var.aws_mykey_pair -->
<g id="node6" class="node">
<title>[root] var.aws_mykey_pair</title>
<polygon fill="none" stroke="#000000" points="932.5618,-180 805.5378,-180 805.5378,-144 938.5618,-144 938.5618,-174 932.5618,-180"/>
<polyline fill="none" stroke="#000000" points="932.5618,-180 932.5618,-174 "/>
<polyline fill="none" stroke="#000000" points="938.5618,-174 932.5618,-174 "/>
<text text-anchor="middle" x="872.0498" y="-157.8" font-family="Times,serif" font-size="14.00" fill="#000000">var.aws_mykey_pair</text>
</g>
<!-- [root] aws_instance.http_server_01 (expand)&#45;&gt;[root] var.aws_mykey_pair -->
<g id="edge4" class="edge">
<title>[root] aws_instance.http_server_01 (expand)-&gt;[root] var.aws_mykey_pair</title>
<path fill="none" stroke="#000000" d="M801.0223,-215.8314C812.8358,-206.8779 827.2469,-195.9558 839.9932,-186.2955"/>
<polygon fill="#000000" stroke="#000000" points="842.2293,-188.9925 848.0849,-180.1628 838.0011,-183.4137 842.2293,-188.9925"/>
</g>
<!-- [root] aws_security_group.http_server_sg_01 (expand)&#45;&gt;[root] aws_default_vpc.my_default_vpc (expand) -->
<g id="edge5" class="edge">
<title>[root] aws_security_group.http_server_sg_01 (expand)-&gt;[root] aws_default_vpc.my_default_vpc (expand)</title>
<path fill="none" stroke="#000000" d="M1106.0498,-143.8314C1106.0498,-136.131 1106.0498,-126.9743 1106.0498,-118.4166"/>
<polygon fill="#000000" stroke="#000000" points="1109.5499,-118.4132 1106.0498,-108.4133 1102.5499,-118.4133 1109.5499,-118.4132"/>
</g>
<!-- [root] data.aws_ami.aws_ami_Linux_2_latest (expand)&#45;&gt;[root] provider[&quot;registry.terraform.io/hashicorp/aws&quot;] -->
<g id="edge6" class="edge">
<title>[root] data.aws_ami.aws_ami_Linux_2_latest (expand)-&gt;[root] provider["registry.terraform.io/hashicorp/aws"]</title>
<path fill="none" stroke="#000000" d="M868.0785,-71.8314C884.2611,-62.0402 904.3349,-49.8947 921.3173,-39.6196"/>
<polygon fill="#000000" stroke="#000000" points="923.1353,-42.6105 929.8793,-34.4393 919.5116,-36.6214 923.1353,-42.6105"/>
</g>
<!-- [root] output.aws_default_vpc_details (expand) -->
<g id="node7" class="node">
<title>[root] output.aws_default_vpc_details (expand)</title>
<ellipse fill="none" stroke="#000000" cx="1607.0498" cy="-234" rx="194.9524" ry="18"/>
<text text-anchor="middle" x="1607.0498" y="-229.8" font-family="Times,serif" font-size="14.00" fill="#000000">[root] output.aws_default_vpc_details (expand)</text>
</g>
<!-- [root] output.aws_default_vpc_details (expand)&#45;&gt;[root] aws_default_vpc.my_default_vpc (expand) -->
<g id="edge7" class="edge">
<title>[root] output.aws_default_vpc_details (expand)-&gt;[root] aws_default_vpc.my_default_vpc (expand)</title>
<path fill="none" stroke="#000000" d="M1547.1151,-216.7733C1454.7405,-190.2225 1277.8743,-139.3867 1178.4726,-110.8161"/>
<polygon fill="#000000" stroke="#000000" points="1179.3839,-107.4364 1168.8061,-108.0378 1177.4501,-114.1641 1179.3839,-107.4364"/>
</g>
<!-- [root] output.aws_instance_http_server_details (expand) -->
<g id="node8" class="node">
<title>[root] output.aws_instance_http_server_details (expand)</title>
<ellipse fill="none" stroke="#000000" cx="229.0498" cy="-306" rx="229.0995" ry="18"/>
<text text-anchor="middle" x="229.0498" y="-301.8" font-family="Times,serif" font-size="14.00" fill="#000000">[root] output.aws_instance_http_server_details (expand)</text>
</g>
<!-- [root] output.aws_instance_http_server_details (expand)&#45;&gt;[root] aws_instance.http_server_01 (expand) -->
<g id="edge8" class="edge">
<title>[root] output.aws_instance_http_server_details (expand)-&gt;[root] aws_instance.http_server_01 (expand)</title>
<path fill="none" stroke="#000000" d="M346.9461,-290.51C445.5866,-277.5499 584.732,-259.268 677.7683,-247.0443"/>
<polygon fill="#000000" stroke="#000000" points="678.2916,-250.5057 687.7504,-245.7328 677.3797,-243.5653 678.2916,-250.5057"/>
</g>
<!-- [root] output.aws_instance_http_server_public_dns_details (expand) -->
<g id="node9" class="node">
<title>[root] output.aws_instance_http_server_public_dns_details (expand)</title>
<ellipse fill="none" stroke="#000000" cx="752.0498" cy="-306" rx="276.0176" ry="18"/>
<text text-anchor="middle" x="752.0498" y="-301.8" font-family="Times,serif" font-size="14.00" fill="#000000">[root] output.aws_instance_http_server_public_dns_details (expand)</text>
</g>
<!-- [root] output.aws_instance_http_server_public_dns_details (expand)&#45;&gt;[root] aws_instance.http_server_01 (expand) -->
<g id="edge9" class="edge">
<title>[root] output.aws_instance_http_server_public_dns_details (expand)-&gt;[root] aws_instance.http_server_01 (expand)</title>
<path fill="none" stroke="#000000" d="M758.3583,-287.8314C761.0614,-280.0463 764.2814,-270.7729 767.2808,-262.1347"/>
<polygon fill="#000000" stroke="#000000" points="770.6824,-263.0081 770.6563,-252.4133 764.0697,-260.7119 770.6824,-263.0081"/>
</g>
<!-- [root] output.aws_security_group_http_server_details (expand) -->
<g id="node10" class="node">
<title>[root] output.aws_security_group_http_server_details (expand)</title>
<ellipse fill="none" stroke="#000000" cx="1139.0498" cy="-234" rx="255.1701" ry="18"/>
<text text-anchor="middle" x="1139.0498" y="-229.8" font-family="Times,serif" font-size="14.00" fill="#000000">[root] output.aws_security_group_http_server_details (expand)</text>
</g>
<!-- [root] output.aws_security_group_http_server_details (expand)&#45;&gt;[root] aws_security_group.http_server_sg_01 (expand) -->
<g id="edge10" class="edge">
<title>[root] output.aws_security_group_http_server_details (expand)-&gt;[root] aws_security_group.http_server_sg_01 (expand)</title>
<path fill="none" stroke="#000000" d="M1130.7225,-215.8314C1127.0768,-207.8771 1122.7189,-198.369 1118.6871,-189.5723"/>
<polygon fill="#000000" stroke="#000000" points="1121.8375,-188.0456 1114.4892,-180.4133 1115.474,-190.9622 1121.8375,-188.0456"/>
</g>
<!-- [root] provider[&quot;registry.terraform.io/hashicorp/aws&quot;] (close) -->
<g id="node11" class="node">
<title>[root] provider["registry.terraform.io/hashicorp/aws"] (close)</title>
<ellipse fill="none" stroke="#000000" cx="1294.0498" cy="-306" rx="247.2168" ry="18"/>
<text text-anchor="middle" x="1294.0498" y="-301.8" font-family="Times,serif" font-size="14.00" fill="#000000">[root] provider["registry.terraform.io/hashicorp/aws"] (close)</text>
</g>
<!-- [root] provider[&quot;registry.terraform.io/hashicorp/aws&quot;] (close)&#45;&gt;[root] aws_instance.http_server_01 (expand) -->
<g id="edge11" class="edge">
<title>[root] provider["registry.terraform.io/hashicorp/aws"] (close)-&gt;[root] aws_instance.http_server_01 (expand)</title>
<path fill="none" stroke="#000000" d="M1161.6948,-290.7792C1081.7766,-281.1486 977.666,-267.8289 876.3268,-252.1592"/>
<polygon fill="#000000" stroke="#000000" points="876.6325,-248.6647 866.2133,-250.586 875.5565,-255.5815 876.6325,-248.6647"/>
</g>
<!-- [root] root -->
<g id="node12" class="node">
<title>[root] root</title>
<ellipse fill="none" stroke="#000000" cx="1294.0498" cy="-378" rx="50.9823" ry="18"/>
<text text-anchor="middle" x="1294.0498" y="-373.8" font-family="Times,serif" font-size="14.00" fill="#000000">[root] root</text>
</g>
<!-- [root] root&#45;&gt;[root] output.aws_default_vpc_details (expand) -->
<g id="edge12" class="edge">
<title>[root] root-&gt;[root] output.aws_default_vpc_details (expand)</title>
<path fill="none" stroke="#000000" d="M1343.8271,-373.6359C1412.9174,-366.6778 1533.2149,-351.0227 1567.0498,-324 1586.1637,-308.7344 1596.4064,-282.4238 1601.7238,-262.1804"/>
<polygon fill="#000000" stroke="#000000" points="1605.1796,-262.7753 1604.0764,-252.238 1598.3677,-261.1634 1605.1796,-262.7753"/>
</g>
<!-- [root] root&#45;&gt;[root] output.aws_instance_http_server_details (expand) -->
<g id="edge13" class="edge">
<title>[root] root-&gt;[root] output.aws_instance_http_server_details (expand)</title>
<path fill="none" stroke="#000000" d="M1243.6933,-374.8929C1114.5958,-366.8878 761.2787,-344.7318 467.0498,-324 446.3532,-322.5417 424.6481,-320.9653 403.1207,-319.3727"/>
<polygon fill="#000000" stroke="#000000" points="403.1423,-315.8648 392.9108,-318.6152 402.6244,-322.8456 403.1423,-315.8648"/>
</g>
<!-- [root] root&#45;&gt;[root] output.aws_instance_http_server_public_dns_details (expand) -->
<g id="edge14" class="edge">
<title>[root] root-&gt;[root] output.aws_instance_http_server_public_dns_details (expand)</title>
<path fill="none" stroke="#000000" d="M1245.9509,-371.6105C1165.5198,-360.9259 1001.0393,-339.0761 884.0076,-323.5295"/>
<polygon fill="#000000" stroke="#000000" points="884.2727,-320.034 873.8988,-322.1866 883.3508,-326.973 884.2727,-320.034"/>
</g>
<!-- [root] root&#45;&gt;[root] output.aws_security_group_http_server_details (expand) -->
<g id="edge15" class="edge">
<title>[root] root-&gt;[root] output.aws_security_group_http_server_details (expand)</title>
<path fill="none" stroke="#000000" d="M1344.338,-374.7132C1411.405,-369.1616 1524.6561,-355.309 1550.0498,-324 1560.1285,-311.5735 1560.6009,-300.0281 1550.0498,-288 1534.6635,-270.46 1429.3981,-256.8334 1329.2618,-247.6563"/>
<polygon fill="#000000" stroke="#000000" points="1329.5533,-244.1685 1319.2789,-246.7544 1328.9233,-251.1401 1329.5533,-244.1685"/>
</g>
<!-- [root] root&#45;&gt;[root] provider[&quot;registry.terraform.io/hashicorp/aws&quot;] (close) -->
<g id="edge16" class="edge">
<title>[root] root-&gt;[root] provider["registry.terraform.io/hashicorp/aws"] (close)</title>
<path fill="none" stroke="#000000" d="M1294.0498,-359.8314C1294.0498,-352.131 1294.0498,-342.9743 1294.0498,-334.4166"/>
<polygon fill="#000000" stroke="#000000" points="1297.5499,-334.4132 1294.0498,-324.4133 1290.5499,-334.4133 1297.5499,-334.4132"/>
</g>
</g>
</svg>